<svg width="128" height="128" viewBox="0 0 128 128" fill="none" xmlns="http://www.w3.org/2000/svg">
  <circle cx="64" cy="64" r="60" fill="#14B8A6"/>
  <path d="M64 24C41.9 24 24 41.9 24 64C24 86.1 41.9 104 64 104C86.1 104 104 86.1 104 64C104 41.9 86.1 24 64 24ZM59 98.86C41.1 96.9 27 81.3 27 64C27 60.52 27.48 57.16 28.26 53.94L52 77V82C52 87.5 56.5 92 62 92V98.86ZM94.6 89.14C93.38 85.1 89.6 82 85 82H80V67C80 64.25 77.75 62 75 62H47V52H57C59.75 52 62 49.75 62 47V37H72C77.5 37 82 32.5 82 27V24.94C94.79 31.88 104 45.3 104 64C104 74.16 100.4 83.41 94.6 89.14Z" fill="white"/>
</svg>
